<?xml version="1.0" encoding="UTF-8"?>
<svg id="Layer_2" data-name="Layer 2" xmlns="http://www.w3.org/2000/svg" xmlns:xlink="http://www.w3.org/1999/xlink" viewBox="0 0 693.06 513.52">
  <defs>
    <style>
      .cls-1 {
        fill: url(#linear-gradient-10);
      }

      .cls-1, .cls-2, .cls-3, .cls-4, .cls-5, .cls-6, .cls-7, .cls-8, .cls-9, .cls-10, .cls-11, .cls-12, .cls-13 {
        stroke: #91d0f2;
        stroke-miterlimit: 10;
      }

      .cls-2 {
        fill: #fff;
      }

      .cls-14 {
        fill: url(#linear-gradient-2);
      }

      .cls-15 {
        mask: url(#mask-1);
      }

      .cls-3, .cls-16 {
        fill: none;
      }

      .cls-17 {
        mask: url(#mask);
      }

      .cls-4 {
        fill: url(#linear-gradient-4);
      }

      .cls-18 {
        fill: url(#Fading_Sky_2);
      }

      .cls-19 {
        clip-path: url(#clippath-1);
      }

      .cls-5 {
        fill: url(#linear-gradient-13);
      }

      .cls-6 {
        fill: url(#linear-gradient-9);
      }

      .cls-7 {
        fill: url(#linear-gradient-12);
      }

      .cls-8 {
        fill: url(#linear-gradient-11);
      }

      .cls-9 {
        fill: url(#linear-gradient-8);
      }

      .cls-10 {
        fill: url(#linear-gradient-3);
      }

      .cls-11 {
        fill: url(#linear-gradient-7);
      }

      .cls-20 {
        clip-path: url(#clippath-2);
      }

      .cls-12 {
        fill: url(#linear-gradient-5);
      }

      .cls-21 {
        fill: url(#linear-gradient);
      }

      .cls-22 {
        clip-path: url(#clippath);
      }

      .cls-13 {
        fill: url(#linear-gradient-6);
      }
    </style>
    <linearGradient id="linear-gradient" x1="-1780.45" y1="257.57" x2="-1210.09" y2="257.57" gradientTransform="translate(1780.45 515.14) scale(1 -1)" gradientUnits="userSpaceOnUse">
      <stop offset="0" stop-color="#fff" stop-opacity="0"/>
      <stop offset=".23" stop-color="#fff" stop-opacity=".34"/>
      <stop offset=".43" stop-color="#fff" stop-opacity=".6"/>
      <stop offset=".51" stop-color="#fff" stop-opacity=".7"/>
    </linearGradient>
    <mask id="mask" x="0" y="1.61" width="570.36" height="511.91" maskUnits="userSpaceOnUse">
      <rect class="cls-21" y="1.61" width="570.36" height="511.91" transform="translate(570.36 515.14) rotate(180)"/>
    </mask>
    <linearGradient id="Fading_Sky_2" data-name="Fading Sky 2" x1="0" y1="257.57" x2="570.36" y2="257.57" gradientTransform="translate(570.36 515.14) rotate(-180)" gradientUnits="userSpaceOnUse">
      <stop offset="0" stop-color="#2584c6"/>
      <stop offset="1" stop-color="#2584c6" stop-opacity="0"/>
    </linearGradient>
    <clipPath id="clippath">
      <rect class="cls-16" x="2.98" width="690.08" height="511.91"/>
    </clipPath>
    <linearGradient id="linear-gradient-2" x1="1906.59" y1="57.6" x2="383.12" y2="519.78" gradientTransform="translate(-684.45)" gradientUnits="userSpaceOnUse">
      <stop offset="0" stop-color="#fff" stop-opacity="0"/>
      <stop offset="1" stop-color="#fff"/>
    </linearGradient>
    <mask id="mask-1" x="-217.03" y="-117.56" width="1459.24" height="658.52" maskUnits="userSpaceOnUse">
      <rect class="cls-14" x="-105.07" width="1346.78" height="511.91"/>
    </mask>
    <clipPath id="clippath-1">
      <rect class="cls-3" x="-105.07" width="1346.78" height="511.91"/>
    </clipPath>
    <linearGradient id="linear-gradient-3" x1="722.83" y1="433.95" x2="744.91" y2="527.14" xlink:href="#linear-gradient-2"/>
    <linearGradient id="linear-gradient-4" x1="731.85" y1="328.96" x2="759.68" y2="446.37" xlink:href="#linear-gradient-2"/>
    <linearGradient id="linear-gradient-5" x1="730.52" y1="372.8" x2="560.27" y2="413.4" gradientTransform="translate(-684.45)" gradientUnits="userSpaceOnUse">
      <stop offset="0" stop-color="#fff"/>
      <stop offset="1" stop-color="#fff" stop-opacity="0"/>
    </linearGradient>
    <linearGradient id="linear-gradient-6" x1="737.61" y1="404.18" x2="521.73" y2="559.3" xlink:href="#linear-gradient-2"/>
    <linearGradient id="linear-gradient-7" x1="638.78" y1="198.15" x2="998.05" y2="333.95" gradientTransform="translate(-684.45)" gradientUnits="userSpaceOnUse">
      <stop offset="0" stop-color="#fff"/>
      <stop offset=".04" stop-color="#fff" stop-opacity=".93"/>
      <stop offset=".2" stop-color="#fff" stop-opacity=".69"/>
      <stop offset=".35" stop-color="#fff" stop-opacity=".48"/>
      <stop offset=".5" stop-color="#fff" stop-opacity=".31"/>
      <stop offset=".64" stop-color="#fff" stop-opacity=".17"/>
      <stop offset=".77" stop-color="#fff" stop-opacity=".08"/>
      <stop offset=".9" stop-color="#fff" stop-opacity=".02"/>
      <stop offset="1" stop-color="#fff" stop-opacity="0"/>
    </linearGradient>
    <linearGradient id="linear-gradient-8" x1="613.03" y1="229.01" x2="838.94" y2="-238.96" xlink:href="#linear-gradient-2"/>
    <linearGradient id="linear-gradient-9" x1="812.74" y1="162.71" x2="1370.16" y2="90" xlink:href="#linear-gradient-2"/>
    <linearGradient id="linear-gradient-10" x1="1058.6" y1="-98.7" x2="739.87" y2="108.04" xlink:href="#linear-gradient-2"/>
    <linearGradient id="linear-gradient-11" x1="732.77" y1="482.22" x2="1401.9" y2="563.46" xlink:href="#linear-gradient-2"/>
    <linearGradient id="linear-gradient-12" x1="1038.36" y1="159.11" x2="1101.89" y2="429.39" xlink:href="#linear-gradient-5"/>
    <linearGradient id="linear-gradient-13" x1="1131.95" y1="223.95" x2="1593.04" y2="269.95" xlink:href="#linear-gradient-7"/>
    <clipPath id="clippath-2">
      <rect class="cls-3" x="-105.07" width="1346.78" height="511.91"/>
    </clipPath>
  </defs>
  <g id="Layer_1-2" data-name="Layer 1">
    <image width="939" height="751" transform="translate(2.98) scale(.73 .68)" xlink:href="../../../Downloads/login-banner.png"/>
    <g class="cls-17">
      <rect class="cls-18" y="1.61" width="570.36" height="511.91" transform="translate(570.36 515.14) rotate(180)"/>
    </g>
    <g class="cls-22">
      <g>
        <g class="cls-15">
          <g>
            <g class="cls-19">
              <polygon class="cls-10" points="33.89 526.03 50.27 526.03 75.27 441.92 2.93 432 33.89 526.03"/>
              <polygon class="cls-4" points="2.93 432 75.27 441.92 117.64 299.28 -26.94 341.3 2.93 432"/>
              <polygon class="cls-12" points="2.93 432 -113.62 416.03 -110.9 365.7 -26.94 341.3 2.93 432"/>
              <polygon class="cls-13" points="-113.62 416.03 2.93 432 33.89 526.03 -120.03 526.03 -113.62 416.03"/>
              <polygon class="cls-11" points="-26.94 341.3 117.64 299.28 164.51 141.53 -47.08 280.12 -26.94 341.3"/>
              <polygon class="cls-9" points="164.51 141.53 225.72 -64.49 -145.5 -18.78 -47.08 280.12 164.51 141.53"/>
              <polygon class="cls-6" points="117.64 299.28 480.86 193.73 390.89 -6.73 164.51 141.53 117.64 299.28"/>
              <polygon class="cls-1" points="164.51 141.53 241.25 -116.74 390.89 -6.73 164.51 141.53"/>
              <polygon class="cls-8" points="75.27 441.92 788.51 539.69 50.27 526.03 75.27 441.92"/>
              <polygon class="cls-7" points="75.27 441.92 117.64 299.28 480.86 193.73 788.51 539.69 75.27 441.92"/>
              <line class="cls-3" x1="33.89" y1="526.03" x2="-177.75" y2="-116.74"/>
              <line class="cls-3" x1="50.27" y1="526.03" x2="241.25" y2="-116.74"/>
              <line class="cls-3" x1="-214.81" y1="395.9" x2="480.86" y2="193.73"/>
              <line class="cls-3" x1="390.89" y1="-6.73" x2="-177.75" y2="365.7"/>
              <line class="cls-3" x1="-113.62" y1="416.03" x2="788.51" y2="539.69"/>
              <polygon class="cls-2" points="390.89 -6.73 480.86 193.73 807.75 -21.83 390.89 -6.73"/>
              <polygon class="cls-5" points="480.86 193.73 788.51 539.69 807.75 -21.83 480.86 193.73"/>
              <polygon class="cls-3" points="480.86 193.73 807.75 -21.83 390.89 -6.73 480.86 193.73"/>
              <polygon class="cls-3" points="788.51 539.69 480.86 193.73 807.75 -21.83 788.51 539.69"/>
              <line class="cls-3" x1="-121.1" y1="537.89" x2="133.29" y2="-22.91"/>
              <line class="cls-3" x1="-19.56" y1="-20.75" x2="449.68" y2="538.97"/>
            </g>
            <rect class="cls-3" x="-105.07" width="1346.78" height="511.91"/>
          </g>
        </g>
        <g>
          <g class="cls-20">
            <polyline class="cls-3" points="439.34 -39.45 646.79 189.58 311.78 571.88"/>
            <line class="cls-3" x1="438.15" y1="427.67" x2="572.58" y2="571.88"/>
            <line class="cls-3" x1="398.39" y1="473.05" x2="-221.23" y2="537.37"/>
            <line class="cls-3" x1="115.18" y1="502.18" x2="-128.6" y2="317.37"/>
            <line class="cls-3" x1="86.2" y1="-52.19" x2="-162.8" y2="143.37"/>
            <line class="cls-3" x1="646.79" y1="189.58" x2="1239.07" y2="364.82"/>
            <line class="cls-3" x1="566.32" y1="281.42" x2="517" y2="558.23"/>
            <line class="cls-3" x1="524.26" y1="54.29" x2="1190.4" y2="-15.01"/>
            <line class="cls-3" x1="6.09" y1="419.61" x2="-157.44" y2="451.97"/>
          </g>
          <rect class="cls-3" x="-105.07" width="1346.78" height="511.91"/>
        </g>
      </g>
    </g>
  </g>
</svg>