<?xml version="1.0" encoding="UTF-8"?>
<svg id="Layer_2" data-name="Layer 2" xmlns="http://www.w3.org/2000/svg" xmlns:xlink="http://www.w3.org/1999/xlink" viewBox="0 0 423.41 423.41">
  <defs>
    <style>
      .cls-1 {
        fill: #3c3e43;
      }

      .cls-1, .cls-2, .cls-3, .cls-4, .cls-5, .cls-6, .cls-7, .cls-8, .cls-9, .cls-10 {
        stroke: #fff;
        stroke-miterlimit: 10;
      }

      .cls-11 {
        fill: #67b845;
      }

      .cls-12 {
        fill: #fff;
      }

      .cls-2 {
        fill: url(#linear-gradient-3);
      }

      .cls-13 {
        fill: none;
      }

      .cls-3 {
        fill: #c7cad6;
      }

      .cls-4 {
        fill: #8f939a;
      }

      .cls-5 {
        fill: #e6ecf7;
      }

      .cls-6 {
        fill: url(#linear-gradient-4);
      }

      .cls-7 {
        fill: #707781;
      }

      .cls-8 {
        fill: #c9c9c9;
      }

      .cls-14 {
        fill: #2791cf;
      }

      .cls-15 {
        fill: #ea8a23;
      }

      .cls-9 {
        fill: #404855;
      }

      .cls-10 {
        fill: url(#linear-gradient-2);
      }

      .cls-16 {
        fill: url(#linear-gradient);
      }

      .cls-17 {
        fill: #57b34e;
      }

      .cls-18 {
        clip-path: url(#clippath);
      }
    </style>
    <linearGradient id="linear-gradient" x1="342.69" y1="32.84" x2="109.93" y2="350.68" gradientUnits="userSpaceOnUse">
      <stop offset="0" stop-color="#6bb6e5"/>
      <stop offset=".99" stop-color="#405eab"/>
    </linearGradient>
    <clipPath id="clippath">
      <path class="cls-13" d="M41.09,382.32c-12.87-12.87-22.97-27.86-30.04-44.58-7.33-17.33-11.05-35.71-11.05-54.62v-142.82c0-18.92,3.72-37.29,11.05-54.62,7.07-16.71,17.18-31.71,30.04-44.58,12.87-12.87,27.87-22.98,44.58-30.04C103,3.72,121.38,0,140.29,0h142.82c18.92,0,37.29,3.72,54.62,11.05,16.71,7.07,31.71,17.18,44.58,30.04,12.87,12.87,22.98,27.87,30.04,44.58,7.33,17.33,11.05,35.71,11.05,54.62v142.82c0,18.92-3.72,37.29-11.05,54.62-7.07,16.71-17.18,31.71-30.04,44.58-12.87,12.87-27.86,22.98-44.58,30.04-17.33,7.33-35.71,11.05-54.62,11.05h-142.82c-18.92,0-37.29-3.72-54.62-11.05-16.71-7.07-31.71-17.18-44.58-30.04Z"/>
    </clipPath>
    <linearGradient id="linear-gradient-2" x1="510.87" y1="814.94" x2="759.68" y2="814.94" gradientTransform="translate(-799.47 130.26) rotate(-45)" gradientUnits="userSpaceOnUse">
      <stop offset="0" stop-color="#ccc"/>
      <stop offset=".49" stop-color="#e2e2e2"/>
      <stop offset="1" stop-color="#fff"/>
    </linearGradient>
    <linearGradient id="linear-gradient-3" x1="220.31" y1="478.56" x2="220.31" y2="105.41" gradientUnits="userSpaceOnUse">
      <stop offset="0" stop-color="#181f29"/>
      <stop offset=".18" stop-color="#212833"/>
      <stop offset=".53" stop-color="#2e3641"/>
      <stop offset=".82" stop-color="#333b47"/>
    </linearGradient>
    <linearGradient id="linear-gradient-4" x1="256.52" y1="482.56" x2="256.52" y2="261.86" gradientUnits="userSpaceOnUse">
      <stop offset="0" stop-color="#748b9d"/>
      <stop offset="1" stop-color="#f8fafd"/>
    </linearGradient>
  </defs>
  <g id="Layer_1-2" data-name="Layer 1">
    <path class="cls-16" d="M41.09,382.32c-12.87-12.87-22.97-27.86-30.04-44.58-7.33-17.33-11.05-35.71-11.05-54.62v-142.82c0-18.92,3.72-37.29,11.05-54.62,7.07-16.71,17.18-31.71,30.04-44.58,12.87-12.87,27.87-22.98,44.58-30.04C103,3.72,121.38,0,140.29,0h142.82c18.92,0,37.29,3.72,54.62,11.05,16.71,7.07,31.71,17.18,44.58,30.04,12.87,12.87,22.98,27.87,30.04,44.58,7.33,17.33,11.05,35.71,11.05,54.62v142.82c0,18.92-3.72,37.29-11.05,54.62-7.07,16.71-17.18,31.71-30.04,44.58-12.87,12.87-27.86,22.98-44.58,30.04-17.33,7.33-35.71,11.05-54.62,11.05h-142.82c-18.92,0-37.29-3.72-54.62-11.05-16.71-7.07-31.71-17.18-44.58-30.04ZM288.95,134.46c-10.25-10.25-23.87-15.89-38.37-15.89h-77.76c-14.49,0-28.12,5.64-38.37,15.89-10.25,10.25-15.89,23.87-15.89,38.37v77.76c0,14.49,5.64,28.12,15.89,38.37,10.25,10.25,23.87,15.89,38.37,15.89h77.76c14.49,0,28.12-5.64,38.37-15.89,10.25-10.25,15.89-23.87,15.89-38.37v-77.76c0-14.49-5.64-28.12-15.89-38.37Z"/>
    <g class="cls-18">
      <g>
        <path class="cls-10" d="M290.95,153.84c-8.94-3.78-18.41-5.7-28.16-5.7h-73.64c-9.75,0-19.23,1.92-28.16,5.7-8.62,3.64-16.35,8.86-22.98,15.49-6.63,6.63-11.85,14.37-15.49,22.98-3.78,8.93-5.7,18.41-5.7,28.16v73.64c0,9.75,1.92,19.23,5.7,28.16,3.64,8.62,8.86,16.35,15.49,22.98,6.63,6.63,14.37,11.85,22.98,15.49,8.93,3.78,18.41,5.7,28.16,5.7h73.64c9.75,0,19.23-1.92,28.16-5.7,8.62-3.64,16.35-8.86,22.98-15.49,6.63-6.63,11.85-14.37,15.49-22.98,3.78-8.93,5.7-18.41,5.7-28.16v-73.64c0-9.75-1.92-19.23-5.7-28.16-3.64-8.62-8.86-16.35-15.49-22.98-6.63-6.63-14.37-11.85-22.98-15.49Z"/>
        <path class="cls-3" d="M-1.43,169.56c15.83,4.96,31.66,9.91,47.49,14.87,8.15-11.72,16.31-23.44,24.46-35.17,6.01,1.82,12.03,3.65,18.04,5.47l60.63-88.16c75.38,30.41,150.75,60.82,226.13,91.23.68,4.03,1.36,8.06,2.04,12.09-7.43,7.25-14.86,14.5-22.3,21.75-6.34,18.67-12.67,37.35-19.01,56.02,35.02,15.23,70.05,30.46,105.07,45.7-.28,5.25-.57,10.5-.85,15.74-23.92-1.74-47.84-3.49-71.76-5.23C244.31,266.32,120.11,228.76-4.1,191.2c.89-7.21,1.78-14.43,2.66-21.64Z"/>
        <path class="cls-2" d="M6.26,179.52c-1.96,32.38-4.55,87.99-2.78,144.68.37,11.65,1.05,29.95,9.02,51.74,11.27,30.8,29.64,49.24,33.59,53.1,8.57,8.37,16.95,14.17,20.56,16.57,7.96,5.29,16.46,9.79,25.43,13.47,17.88,7.33,36.84,11.05,56.36,11.05h147.36c19.52,0,38.48-3.72,56.36-11.05,17.24-7.07,32.72-17.18,45.99-30.04,13.28-12.87,23.71-27.86,31-44.58,3.71-8.51,6.52-17.28,8.43-26.24l.13-58.82-71.12-30.7-5.89-94.52-204.61-77.21-45.22,64.9,20.79,7.49-1.56,8.49-56.13-19.47c-8.41,11.7-16.81,23.39-25.22,35.09-14.17-4.65-28.34-9.3-42.51-13.96Z"/>
        <path class="cls-9" d="M73.99,158.39c-7.07,101.63-14.14,203.26-21.21,304.89,20.17,2.21,40.34,4.43,60.51,6.64,5.61-97.35,11.22-194.71,16.83-292.06-18.71-6.49-37.42-12.98-56.13-19.47Z"/>
        <path class="cls-9" d="M-2.14,177.48l-42.13,294.89c22.47-3.74,44.94-7.49,67.4-11.23,8.68-89.7,17.36-179.4,26.04-269.11l-51.32-14.55Z"/>
        <path class="cls-9" d="M156.03,97.31c-6,128.68-12,257.36-18,386.04,79.4-3.06,158.81-6.13,238.21-9.19-5.18-99.99-10.35-199.97-15.53-299.96-68.23-25.63-136.46-51.26-204.68-76.89Z"/>
        <path class="cls-4" d="M149.78,65.05c75.95,30.82,151.9,61.63,227.85,92.45l.32,12.06c-75.83-30.64-151.66-61.28-227.49-91.91-.23-4.2-.45-8.4-.68-12.6Z"/>
        <path class="cls-4" d="M149.78,65.05c-20.41,29.9-40.82,59.79-61.22,89.69,2.59.74,5.19,1.49,7.78,2.23,18.04-26.44,36.09-52.88,54.13-79.32-.23-4.2-.45-8.4-.68-12.6Z"/>
        <path class="cls-8" d="M386.82,273.92c-82.64-27.57-165.28-55.15-247.91-82.72-.11,6.18-.23,12.37-.34,18.55,82.95,27.35,165.9,54.7,248.85,82.04-.2-5.96-.4-11.91-.6-17.87Z"/>
        <path class="cls-1" d="M387.42,291.8c-82.95-27.35-165.9-54.7-248.85-82.04-12.14,14.52-24.28,29.05-36.43,43.57,7.72,3.18,15.43,6.35,23.15,9.53,7.38-8.85,14.75-17.7,22.13-26.55,73.66,23.18,147.32,46.35,220.98,69.53-.04,3.63-.09,7.27-.13,10.9,6.38-8.31,12.77-16.62,19.15-24.94Z"/>
        <path class="cls-7" d="M102.14,253.37l2.51-22.6c11.42-13.19,22.84-26.38,34.26-39.57-.11,6.2-.23,12.4-.34,18.6-12.14,14.52-24.28,29.05-36.43,43.57Z"/>
        <path class="cls-6" d="M170.92,261.86c58.99,17.09,117.99,34.18,176.98,51.27.92,54.92,1.84,109.84,2.75,164.75-62.75,1.56-125.5,3.12-188.26,4.68,2.84-73.57,5.68-147.14,8.52-220.7Z"/>
        <path class="cls-5" d="M348.22,319.8c-59.25-16.67-118.49-33.34-177.74-50,.15-2.65.29-5.29.44-7.94,58.99,17.09,117.99,34.18,176.98,51.27.11,2.22.22,4.45.33,6.67Z"/>
        <path class="cls-5" d="M349.67,416.58c-61.1-12.71-122.2-25.42-183.3-38.12.15-2.58.29-5.17.44-7.75,60.95,13.04,121.91,26.07,182.86,39.11v6.76Z"/>
        <polygon class="cls-5" points="209.94 501.53 203.69 501.53 209.33 280.23 214.33 280.23 209.94 501.53"/>
        <polygon class="cls-5" points="265.05 512.89 259.2 513.06 257.65 291.8 262.66 291.8 265.05 512.89"/>
        <polygon class="cls-5" points="316.39 524.77 310.57 524.4 308.55 306.4 313.61 306.4 316.39 524.77"/>
        <g>
          <path class="cls-11" d="M253.06,199.7c.04.58-.12,1.18-.39,1.58-.41,1.71-.81,3.42-1.24,5.14-.12.26-.5.53-.79.55l-.43-.03-8.56-2.89c-.48-.1-1-.81-.9-1.25.35-1.56.72-3.11,1.1-4.65.03-.13.08-.25.13-.37s.1-.23.16-.34c.18-.74.47-1.44.56-2.23.69-1.96.88-4.51,1.58-6.42.21-.58.79-.73,1.46-.51l10.2,3.64c.58.11,1-.19,1.11-.72l2.84-12.18c.14-.48.6-.77,1.15-.61l8.17,3.06c.44.21.73.69.72,1.14-1.1,4.24-1.79,8.85-2.95,13.11-.19.69-.44,1.08-1.26.92l-10.07-3.58c-.65-.17-1.03.12-1.2.66-.58,1.81-.92,4.07-1.38,6Z"/>
          <path class="cls-15" d="M248.31,163.21c4.79-.24,9.79.22,14.81,1.2.24-.67.27-1.68.57-2.29.1-.22.57-.58.85-.47l12.69,5.01c-.01.11.05.37-.04.4-.06.02-1.04-.13-1.25-.13-.88-.01-1.74.17-2.33.7,3.73,1.58,7.62,3.63,11,6.55,6.92,5.97,8.26,12.75,4.54,17.88-2.35,3.23-6.03,5.14-9.81,6.52l-.07-.05c3.25-1.56,6.44-3.54,8.29-6.77,3.41-5.97.22-12.93-6.82-18.26-2.53-1.92-5.22-3.4-7.92-4.65-.62,3.14-1.43,6.19-2.05,9.37.03.44.31.92.75,1.09l9.72,3.67c.53.26.78.82.7,1.31l-2.82,13.01c-.14.5-.57.78-1.13.65l-8.01-2.88c-.55-.26-.81-.83-.72-1.33l2.75-12.24c0-.56-.35-.95-.86-1.19l-9.91-3.73c-.57-.27-.76-.84-.67-1.32l2.29-9.85c-4.96-1.18-9.89-1.78-14.66-1.77-1.92,0-3.81.12-5.67.31-.04-.03-.04-.05,0-.05.67-.11,1.32-.25,2-.33,1.23-.16,2.51-.29,3.77-.35Z"/>
          <path class="cls-14" d="M253.06,199.7c5.41,1.67,10.72,2.45,15.72,2.56,4.33.09,8.54-.35,12.35-1.34.59-.15,1.16-.38,1.74-.52.04,0,.12-.07.16.02-8.53,3.4-19.21,3.58-30.34.87.13-.53.27-1.07.39-1.58Z"/>
          <g>
            <path class="cls-14" d="M248.31,163.21c-.13.06-.27.12-.43.14-1.72.17-3.44.35-5.16.55-.06,0-.12,0-.18,0-.02.01-.02.03,0,.05.47-.1.96-.16,1.45-.22,1.35-.15,2.77-.29,4.23-.1l-1.32,5.48c-.02.47.31.98.8,1.19l10.27,3.88c.51.25.82.83.73,1.3l-3.17,13.43c-.1.34-.69.72-1.06.58l-13.58-4.88c.02-.09-.03-.43,0-.46.03-.03.83.11.99.11,1.45.08,2.82-.17,3.58-1.25.41-.59.53-1.35.72-2.1.73-2.82,1.37-5.68,2.04-8.5-.09-.56-.39-.85-.89-1.09l-7.67-2.86c-4.72,2.25-10.49,7.01-8.19,14.6,1.6,5.28,6.75,9.57,11.27,12.16.02.04.04.09.06.13.08.25-.36,1.67-.47,1.98l-.15.12s-.09,0-.14,0-.09-.01-.13-.03c-6.22-3.06-14.06-9.03-14.35-16.32.02-.4-.03-.83,0-1.22.35-5.35,4.76-8.8,8.7-10.73.8-.39,1.65-.7,2.45-1.07l-2.02-.76c-.26-.1-.67-.87-.6-1.11l3.43-13.45c.11-.42.47-.61.91-.62l9,3.56c.33.22.54.74.51,1.05l-1.6,6.47Z"/>
            <path class="cls-17" d="M242.54,163.89v.05c-.19.02-.39.12-.62.07.14-.12.42-.09.62-.12Z"/>
          </g>
        </g>
      </g>
    </g>
    <g>
      <path class="cls-15" d="M325.6,174.6l-.21-.04c-5.95-1.27-10.87-5.23-13.17-10.6-2.19-5.12-1.72-10.87,1.3-15.78,3.14-5.12,8.43-8.05,14.51-8.05,7.96,0,14.58,4.91,16.66,12.14,5.28-.33,10.28-2.52,13.92-6.02-1.29-.31-2.44-1.39-2.97-2.08-.88-1.12-1-2.1-.9-2.8v-38.82c-.03-1.4.88-3.01,1.8-3.96.84-.87,1.8-1.33,2.77-1.33h1.63c.45-11.59-2.02-20.39-7.71-27.58-6.83-8.62-17.08-13.56-28.13-13.56-11.88,0-22.55,5.54-29.28,15.2-4.85,6.96-6.91,15.02-6.59,25.93h1.86c1.05,0,2.52,1.21,2.53,1.22,1.16,1.01,1.84,2.73,2.03,5.13.5,6.37.28,13.14.06,19.68-.2,5.88-.4,11.96-.06,17.65v.2s-.02.2-.02.2c-.59,4.12-3.3,4.84-5.6,5.01-2.19.16-3.98.24-5.64.24-4.49,0-18.15,0-19.29-13.9-.48-5.86-.37-14.95-.02-20.52.52-8.33,6.12-14.27,13.8-14.87-.49-14.53,3.39-26.56,11.56-35.79,8.95-10.12,21.28-15.69,34.7-15.69,16.93,0,31.97,8.81,40.23,23.56,5.49,9.8,6.15,19.98,5.9,28.11,7.43,1.41,11.87,8.93,12.35,15.9.4,5.89.4,14.8,0,20.28-.44,5.96-3.84,10.22-9.33,11.71-.46.12-1.14.22-2.14.34l-.35.04c-.37.53-.92,1.38-1.33,2-1.03,1.56-1.68,2.54-2.05,2.99-5.74,6.87-14.43,11.19-23.51,11.73-1.51,4.9-5.04,8.78-9.87,10.8l-.15.06-3.88,1.27h-5.4ZM328.26,150.26c-3.88,0-7.03,3.16-7.03,7.03s3.16,7.03,7.03,7.03,7.03-3.16,7.03-7.03-3.16-7.03-7.03-7.03ZM370.12,136c.41-.1,1.55-.46,1.82-.57.65-.28,1.04-.61,1.25-1.6-.23-2.38-.09-5.42.07-8.63.28-5.81.62-13.04-1.59-16.08-.49-.68-1.54-1.46-1.94-1.54h-4.64v28.41h5.03ZM285.31,136v-28.41h-6.42c-.4.14-1.29.54-1.54.7-1.55,1.02-1.87,3.4-1.94,4.38-.24,3.48-.12,7.24,0,10.88.09,2.97.19,6.04.09,9,.18.89.68,2.3,2.04,2.96.17.07.99.37,1.38.49h6.39Z"/>
      <path class="cls-12" d="M325.13,47.81c15.17,0,30.19,7.73,38.48,22.53,5.08,9.06,6.06,18.62,5.58,28.9,7.38.28,11.96,7.47,12.42,14.26.38,5.57.41,14.44,0,20-.36,4.93-3,8.61-7.86,9.93-.66.18-2.9.38-3.06.47-.29.16-3.12,4.72-3.82,5.55-5.76,6.9-14.49,10.96-23.53,11.07-1.07,5-4.37,8.93-9.08,10.9l-3.58,1.17h-4.87c-10.64-2.27-16.53-13.68-10.58-23.37,2.98-4.86,7.91-7.1,12.81-7.1,6.86,0,13.67,4.39,15.08,12.19.06,0,.11,0,.17,0,7.61,0,15.25-3.7,19.56-9.98h-3.53c-.89,0-2.85-1.68-2.57-2.79v-39c-.02-1.16,1.37-3.29,2.57-3.29h3.53c.71-11.25-.94-21.84-8.05-30.82-7.58-9.57-18.65-14.31-29.7-14.32-11.76,0-23.49,5.38-30.92,16.06-6.13,8.8-7.42,18.49-6.87,29.07h3.78c.07,0,1.07.6,1.22.73.95.83,1.25,2.54,1.35,3.77.94,11.98-.72,25.18,0,37.29-.34,2.4-1.44,3.13-3.77,3.3-1.78.13-3.64.23-5.49.23-8.25,0-16.47-1.98-17.29-12.06-.46-5.59-.37-14.58-.02-20.23.47-7.54,5.5-13.04,13.09-13.04.27,0,.54,0,.82.02-.82-13.35,1.98-26.29,10.96-36.44,8.95-10.12,21.13-15.01,33.2-15.02M363.09,138h7.19c.28,0,2.06-.56,2.44-.73,1.54-.65,2.22-1.74,2.49-3.36-.77-6.73,2.03-20.53-1.93-25.97-.67-.92-2.33-2.36-3.49-2.36h-6.7v32.41M278.66,138h8.65v-32.41h-8.65c-.33,0-2.02.77-2.4,1.02-1.92,1.27-2.7,3.72-2.85,5.92-.45,6.51.31,13.6.07,20.17.33,1.95,1.35,3.73,3.18,4.61.27.13,1.85.69,1.99.69M328.26,166.33c4.99,0,9.03-4.04,9.03-9.03s-4.04-9.03-9.03-9.03-9.03,4.04-9.03,9.03,4.04,9.03,9.03,9.03M325.14,43.81h0c-13.8,0-27,5.97-36.2,16.36-8.17,9.24-12.23,21.12-12.1,35.36-7.73,1.42-13.22,7.81-13.76,16.5-.35,5.64-.46,14.85.02,20.81.48,5.91,3.22,10.41,7.92,12.99,3.36,1.85,7.73,2.75,13.36,2.75,1.71,0,3.55-.08,5.79-.24,4.34-.32,6.84-2.58,7.43-6.72l.06-.4-.02-.4c-.33-5.6-.13-11.63.07-17.47.22-6.6.45-13.41-.06-19.9-.23-2.94-1.14-5.11-2.71-6.48-.2-.17-1.95-1.65-3.73-1.71-.02-9.48,1.96-16.61,6.26-22.79,6.35-9.12,16.42-14.35,27.64-14.35,10.44,0,20.12,4.67,26.56,12.8,5.06,6.39,7.43,14.2,7.33,24.34-1.05.07-2.48.48-3.88,1.92-1.11,1.14-2.39,3.24-2.36,5.39v38.66c-.16,1.4.3,2.85,1.31,4.15.29.37.64.75,1.06,1.12-2.63,1.86-5.77,3.13-9.04,3.6-2.78-7.21-9.76-11.99-18.04-11.99-6.69,0-12.75,3.37-16.22,9.01-3.36,5.47-3.89,11.89-1.44,17.61,2.55,5.96,8.01,10.36,14.59,11.76l.41.09h5.94l.61-.2,3.58-1.17.15-.05.15-.06c4.95-2.07,8.67-5.9,10.55-10.76,9.13-.9,17.78-5.39,23.58-12.34.43-.52,1-1.36,2.19-3.17.24-.37.54-.82.81-1.23.79-.1,1.38-.2,1.86-.32,6.36-1.72,10.3-6.64,10.8-13.49.41-5.56.41-14.6,0-20.57-.49-7.24-4.9-15.01-12.31-17.31.11-8.11-.83-17.95-6.19-27.53-8.62-15.39-24.31-24.58-41.97-24.58h0ZM367.09,109.59h2.18c.27.19.63.51.78.71,1.8,2.47,1.46,9.6,1.21,14.81-.15,3.09-.29,6.03-.1,8.48-.26.1-.91.3-1.3.41h-2.77v-24.41h0ZM279.26,109.59h4.04v24.41h-4.07c-.31-.1-.7-.25-.89-.32-.49-.27-.73-.86-.85-1.32.08-2.94-.01-5.96-.1-8.88-.12-3.75-.23-7.3,0-10.68.09-1.3.5-2.42,1.01-2.82.19-.1.56-.27.85-.39h0ZM328.26,162.33c-2.78,0-5.03-2.26-5.03-5.03s2.26-5.03,5.03-5.03,5.03,2.26,5.03,5.03-2.26,5.03-5.03,5.03h0Z"/>
    </g>
  </g>
</svg>