<?xml version="1.0" encoding="UTF-8"?>
<svg id="Layer_2" data-name="Layer 2" xmlns="http://www.w3.org/2000/svg" viewBox="0 0 511.05 143.51">
  <defs>
    <style>
      .cls-1 {
        fill: #fff;
      }

      .cls-2 {
        font-family: MyriadPro-Regular, 'Myriad Pro';
        font-size: 12px;
      }
    </style>
  </defs>
  <g id="Layer_2-2" data-name="Layer 2">
    <text/>
    <text class="cls-2" transform="translate(134.97 32.44)"><tspan x="0" y="0" xml:space="preserve">  </tspan></text>
    <g>
      <path class="cls-1" d="M0,95.99l16.96-8.86c1.91,3.87,4.42,6.71,7.51,8.54,3.1,1.83,6.5,2.74,10.2,2.74,4.53,0,7.9-.86,10.1-2.59,2.2-1.72,3.31-4.11,3.31-7.14s-1.2-5.57-3.59-7.36c-2.39-1.79-6.16-3.16-11.32-4.12-9.9-1.91-17.16-4.98-21.8-9.2-4.64-4.22-6.95-10.05-6.95-17.49,0-8.48,2.99-15.26,8.98-20.33,5.99-5.07,13.89-7.61,23.7-7.61,6.69,0,12.56,1.35,17.59,4.05,5.03,2.7,8.98,6.57,11.85,11.6l-16.59,8.54c-1.66-2.83-3.55-4.87-5.68-6.14-2.12-1.27-4.86-1.9-8.23-1.9-3.91,0-6.91.85-9.01,2.56-2.1,1.71-3.15,3.85-3.15,6.42s1.04,4.73,3.12,6.33c2.08,1.6,5.97,2.9,11.66,3.9,9.48,1.71,16.64,4.86,21.48,9.45,4.84,4.59,7.27,10.82,7.27,18.68,0,8.9-2.85,15.96-8.54,21.17-5.7,5.22-13.82,7.83-24.38,7.83-7.65,0-14.54-1.67-20.67-5.02-6.13-3.35-10.74-8.03-13.81-14.06Z"/>
      <path class="cls-1" d="M80.64,41.29c-3.41,0-6.2-1.05-8.36-3.15-2.16-2.1-3.24-4.71-3.24-7.83s1.08-5.88,3.24-7.92c2.16-2.04,4.95-3.06,8.36-3.06s6.25,1.02,8.39,3.06c2.14,2.04,3.21,4.68,3.21,7.92s-1.07,5.88-3.21,7.92c-2.14,2.04-4.94,3.06-8.39,3.06ZM90.49,113.51h-19.71v-63.86h19.71v63.86Z"/>
      <path class="cls-1" d="M161.78,108.21c0,10.98-3.23,19.6-9.7,25.88-6.47,6.28-15.5,9.42-27.1,9.42-7.19,0-13.21-1.22-18.05-3.65-4.84-2.43-8.85-5.79-12.01-10.07l13.66-9.92c2,2.87,4.27,5.1,6.83,6.7,2.56,1.6,5.85,2.4,9.88,2.4,5.15,0,9.24-1.53,12.25-4.58,3.01-3.06,4.52-7.41,4.52-13.07v-4.99h-.25c-2.29,2.91-5.12,5.09-8.51,6.55-3.39,1.46-7.35,2.18-11.88,2.18-7.65,0-14.07-2.75-19.27-8.26-5.2-5.51-7.8-13.31-7.8-23.42,0-11.27,3.03-19.97,9.11-26.1,6.07-6.13,13.24-9.2,21.52-9.2,3.2,0,6.32.62,9.35,1.87,3.03,1.25,5.53,3.12,7.48,5.61h.25v-5.92h19.71v58.56ZM142.32,82.83v-5.05c0-3.95-1.27-7.33-3.8-10.13-2.54-2.81-5.8-4.21-9.79-4.21-4.49,0-8,1.68-10.54,5.05-2.54,3.37-3.8,8-3.8,13.91,0,5.45,1.18,9.7,3.55,12.75s5.82,4.58,10.35,4.58c3.87,0,7.17-1.5,9.92-4.49s4.12-7.13,4.12-12.41Z"/>
      <path class="cls-1" d="M222.21,113.51h-18.65v-7.17h-.25c-2.37,2.91-5.15,5.09-8.33,6.55s-6.75,2.18-10.7,2.18c-5.4,0-10.08-1.67-14.03-5.02-3.95-3.35-5.92-7.95-5.92-13.81s1.89-10.47,5.68-14.31c3.78-3.84,9.35-6.16,16.71-6.95l16.96-1.81v-1.93c0-3.12-.99-5.47-2.96-7.05-1.97-1.58-4.44-2.37-7.39-2.37s-5.55.69-7.8,2.06-4.28,3.41-6.11,6.11l-13.16-7.86c2.29-3.66,5.95-6.91,10.98-9.76,5.03-2.85,10.98-4.27,17.84-4.27,8.81,0,15.54,2.27,20.17,6.8,4.64,4.53,6.95,11.35,6.95,20.46v38.17ZM203.68,87.57v-2.43l-12.72,1.25c-2.95.33-5.1,1.15-6.45,2.46-1.35,1.31-2.03,3.09-2.03,5.33,0,2,.75,3.65,2.25,4.96s3.39,1.96,5.68,1.96c3.91,0,7.1-1.28,9.57-3.84,2.47-2.56,3.71-5.79,3.71-9.7Z"/>
      <path class="cls-1" d="M248.59,108.08h-.25v34.8h-19.71V49.65h19.71v8.29h.25c2.45-3.28,5.47-5.75,9.04-7.39,3.58-1.64,7.57-2.46,11.97-2.46,8.32,0,14.8,2.77,19.46,8.29,4.66,5.53,6.98,13.33,6.98,23.39,0,10.64-2.7,19.19-8.11,25.63-5.4,6.45-12.45,9.67-21.14,9.67-3.87,0-7.36-.58-10.48-1.75s-5.7-2.91-7.73-5.24ZM248.03,79.15v6.61c0,4.12,1.27,7.46,3.8,10.04,2.54,2.58,5.74,3.87,9.6,3.87,4.41,0,7.91-1.7,10.51-5.11,2.6-3.41,3.9-8.25,3.9-14.53,0-5.53-1.15-9.68-3.46-12.44-2.31-2.76-5.6-4.15-9.88-4.15s-7.56,1.43-10.32,4.3c-2.77,2.87-4.15,6.67-4.15,11.41Z"/>
      <path class="cls-1" d="M300.29,86.32v-13.78h34.11v13.78h-34.11Z"/>
      <path class="cls-1" d="M384.92,108.96c-1.96,1.79-4.37,3.25-7.23,4.4s-5.99,1.72-9.35,1.72c-7.32,0-12.74-1.68-16.28-5.05-3.53-3.37-5.3-8.4-5.3-15.09v-30.75h-10.35v-14.53h10.35v-16.28l19.64-3.49v19.77h15.34v14.53h-15.34v30.62c0,1.96.43,3.43,1.28,4.43.85,1,2.05,1.5,3.59,1.5.91,0,1.84-.16,2.78-.47s1.92-.94,2.96-1.9l7.92,10.6Z"/>
      <path class="cls-1" d="M396.46,41.29c-3.41,0-6.2-1.05-8.36-3.15-2.16-2.1-3.24-4.71-3.24-7.83s1.08-5.88,3.24-7.92c2.16-2.04,4.95-3.06,8.36-3.06s6.25,1.02,8.39,3.06c2.14,2.04,3.21,4.68,3.21,7.92s-1.07,5.88-3.21,7.92c-2.14,2.04-4.94,3.06-8.39,3.06ZM406.31,113.51h-19.71v-63.86h19.71v63.86Z"/>
    </g>
    <g>
      <path class="cls-1" d="M470.04,88.92l-.14-.03c-4.04-.86-7.39-3.56-8.95-7.21-1.49-3.48-1.17-7.39.88-10.73,2.13-3.48,5.73-5.47,9.86-5.47,5.41,0,9.91,3.34,11.33,8.25,3.59-.22,6.99-1.71,9.46-4.09-.88-.21-1.66-.94-2.02-1.41-.6-.76-.68-1.43-.61-1.9v-26.39c-.02-.95.6-2.05,1.22-2.69.57-.59,1.22-.9,1.88-.9h1.11c.31-7.88-1.37-13.86-5.24-18.75-4.64-5.86-11.61-9.22-19.12-9.22-8.08,0-15.33,3.77-19.9,10.33-3.3,4.73-4.7,10.21-4.48,17.63h1.26c.71,0,1.71.82,1.72.83.79.69,1.25,1.86,1.38,3.49.34,4.33.19,8.93.04,13.38-.14,4-.27,8.13-.04,12v.27c-.41,2.8-2.26,3.29-3.82,3.41-1.49.11-2.71.16-3.83.16-3.05,0-12.34,0-13.11-9.45-.33-3.98-.25-10.16-.01-13.95.35-5.66,4.16-9.7,9.38-10.11-.33-9.88,2.3-18.06,7.86-24.33,6.08-6.88,14.47-10.67,23.59-10.67,11.51,0,21.73,5.99,27.35,16.02,3.73,6.66,4.18,13.58,4.01,19.11,5.05.96,8.07,6.07,8.4,10.81.27,4,.27,10.06,0,13.79-.3,4.05-2.61,6.95-6.34,7.96-.31.08-.77.15-1.45.23l-.24.03c-.25.36-.63.94-.9,1.36-.7,1.06-1.14,1.73-1.39,2.03-3.9,4.67-9.81,7.61-15.98,7.97-1.03,3.33-3.43,5.97-6.71,7.34l-.1.04-2.64.86h-3.68ZM471.85,72.37c-2.64,0-4.78,2.15-4.78,4.78s2.15,4.78,4.78,4.78,4.78-2.15,4.78-4.78-2.15-4.78-4.78-4.78ZM500.31,62.68c.28-.07,1.05-.31,1.24-.39.44-.19.71-.41.85-1.09-.16-1.62-.06-3.68.05-5.87.19-3.95.42-8.86-1.08-10.93-.33-.46-1.05-.99-1.32-1.05h-3.15v19.31h3.42ZM442.65,62.68v-19.31h-4.36c-.27.1-.88.37-1.05.48-1.05.69-1.27,2.31-1.32,2.98-.16,2.37-.08,4.92,0,7.4.06,2.02.13,4.11.06,6.12.12.61.46,1.56,1.39,2.01.12.05.67.25.94.33h4.34Z"/>
      <path class="cls-1" d="M469.72,2.73c10.31,0,20.52,5.25,26.16,15.32,3.45,6.16,4.12,12.66,3.79,19.65,5.02.19,8.13,5.08,8.44,9.69.26,3.79.28,9.82,0,13.6-.24,3.35-2.04,5.85-5.34,6.75-.45.12-1.97.26-2.08.32-.2.11-2.12,3.21-2.6,3.77-3.92,4.69-9.85,7.45-16,7.53-.73,3.4-2.97,6.07-6.17,7.41l-2.43.8h-3.31c-7.23-1.54-11.24-9.3-7.19-15.89,2.03-3.3,5.38-4.83,8.71-4.83,4.66,0,9.29,2.98,10.25,8.29h.12c5.17,0,10.37-2.52,13.3-6.78h-2.4c-.61,0-1.94-1.14-1.75-1.9v-26.51c-.01-.79.93-2.24,1.75-2.24h2.4c.48-7.65-.64-14.85-5.47-20.95-5.15-6.51-12.68-9.73-20.19-9.73-7.99,0-15.97,3.66-21.02,10.92-4.17,5.98-5.04,12.57-4.67,19.76h2.57s.73.41.83.5c.65.56.85,1.73.92,2.56.64,8.14-.49,17.12,0,25.35-.23,1.63-.98,2.13-2.56,2.24-1.21.09-2.47.16-3.73.16-5.61,0-11.2-1.35-11.75-8.2-.31-3.8-.25-9.91-.01-13.75.32-5.13,3.74-8.86,8.9-8.86.18,0,.37,0,.56.01-.56-9.08,1.35-17.87,7.45-24.77,6.08-6.88,14.36-10.2,22.57-10.21M495.53,64.04h4.89c.19,0,1.4-.38,1.66-.5,1.05-.44,1.51-1.18,1.69-2.28-.52-4.57,1.38-13.96-1.31-17.65-.46-.63-1.58-1.6-2.37-1.6h-4.55v22.03M438.13,64.04h5.88v-22.03h-5.88c-.22,0-1.37.52-1.63.69-1.31.86-1.84,2.53-1.94,4.02-.31,4.43.21,9.25.05,13.71.22,1.33.92,2.54,2.16,3.13.18.09,1.26.47,1.35.47M471.85,83.29c3.39,0,6.14-2.75,6.14-6.14s-2.75-6.14-6.14-6.14-6.14,2.75-6.14,6.14,2.75,6.14,6.14,6.14M469.73,0h0c-9.38,0-18.35,4.06-24.61,11.12-5.55,6.28-8.31,14.36-8.23,24.04-5.25.97-8.99,5.31-9.35,11.22-.24,3.83-.31,10.09.01,14.15.33,4.02,2.19,7.08,5.38,8.83,2.28,1.26,5.25,1.87,9.08,1.87,1.16,0,2.41-.05,3.94-.16,2.95-.22,4.65-1.75,5.05-4.57l.04-.27v-.27c-.24-3.81-.1-7.91.03-11.88.15-4.49.31-9.12-.04-13.53-.16-2-.77-3.47-1.84-4.41-.14-.12-1.33-1.12-2.54-1.16-.01-6.44,1.33-11.29,4.26-15.49,4.32-6.2,11.16-9.76,18.79-9.76,7.1,0,13.68,3.17,18.06,8.7,3.44,4.34,5.05,9.65,4.98,16.55-.71.05-1.69.33-2.64,1.31-.75.77-1.62,2.2-1.6,3.66v26.28c-.11.95.2,1.94.89,2.82.2.25.44.51.72.76-1.79,1.26-3.92,2.13-6.15,2.45-1.89-4.9-6.63-8.15-12.26-8.15-4.55,0-8.67,2.29-11.03,6.12-2.28,3.72-2.64,8.08-.98,11.97,1.73,4.05,5.45,7.04,9.92,7.99l.28.06h4.04l.41-.14,2.43-.8.1-.03.1-.04c3.36-1.41,5.89-4.01,7.17-7.31,6.21-.61,12.09-3.66,16.03-8.39.29-.35.68-.92,1.49-2.15.16-.25.37-.56.55-.84.54-.07.94-.14,1.26-.22,4.32-1.17,7-4.51,7.34-9.17.28-3.78.28-9.92,0-13.98-.33-4.92-3.33-10.2-8.37-11.77.07-5.51-.56-12.2-4.21-18.71-5.86-10.46-16.53-16.71-28.53-16.71h0ZM498.25,44.72h1.48c.18.13.43.35.53.48,1.22,1.68.99,6.53.82,10.07-.1,2.1-.2,4.1-.07,5.76-.18.07-.62.2-.88.28h-1.88v-16.59h0ZM438.54,44.72h2.75v16.59h-2.77c-.21-.07-.48-.17-.61-.22-.33-.18-.5-.58-.58-.9.05-2,0-4.05-.07-6.04-.08-2.55-.16-4.96,0-7.26.06-.88.34-1.65.69-1.92.13-.07.38-.18.58-.27h0ZM471.85,80.58c-1.89,0-3.42-1.54-3.42-3.42s1.54-3.42,3.42-3.42,3.42,1.54,3.42,3.42-1.54,3.42-3.42,3.42h0Z"/>
    </g>
  </g>
</svg>